<mxfile host="app.diagrams.net" agent="Mozilla/5.0 (Windows NT 10.0; Win64; x64) AppleWebKit/537.36 (KHTML, like Gecko) Chrome/134.0.0.0 Safari/537.36" version="26.1.2">
  <diagram name="Page-1" id="PkzDesopQN5EFREzDXlt">
    <mxGraphModel dx="2580" dy="2213" grid="1" gridSize="10" guides="1" tooltips="1" connect="1" arrows="1" fold="1" page="1" pageScale="1" pageWidth="827" pageHeight="1169" math="0" shadow="0">
      <root>
        <mxCell id="0" />
        <mxCell id="1" parent="0" />
        <mxCell id="67NqaBxBAHrcGL6LRNju-3" value="START" style="rounded=1;whiteSpace=wrap;html=1;fillColor=#3CFF29;" vertex="1" parent="1">
          <mxGeometry x="349" y="-520" width="130" height="60" as="geometry" />
        </mxCell>
        <mxCell id="67NqaBxBAHrcGL6LRNju-4" value="" style="endArrow=classic;html=1;rounded=0;" edge="1" parent="1">
          <mxGeometry width="50" height="50" relative="1" as="geometry">
            <mxPoint x="413" y="-460" as="sourcePoint" />
            <mxPoint x="413" y="-430" as="targetPoint" />
            <Array as="points" />
          </mxGeometry>
        </mxCell>
        <mxCell id="67NqaBxBAHrcGL6LRNju-8" style="edgeStyle=orthogonalEdgeStyle;rounded=0;orthogonalLoop=1;jettySize=auto;html=1;" edge="1" parent="1" source="67NqaBxBAHrcGL6LRNju-5">
          <mxGeometry relative="1" as="geometry">
            <mxPoint x="160" y="-320" as="targetPoint" />
          </mxGeometry>
        </mxCell>
        <mxCell id="67NqaBxBAHrcGL6LRNju-10" style="edgeStyle=orthogonalEdgeStyle;rounded=0;orthogonalLoop=1;jettySize=auto;html=1;" edge="1" parent="1" source="67NqaBxBAHrcGL6LRNju-5">
          <mxGeometry relative="1" as="geometry">
            <mxPoint x="690" y="-320" as="targetPoint" />
          </mxGeometry>
        </mxCell>
        <mxCell id="67NqaBxBAHrcGL6LRNju-5" value="IS FORMAT IS NULL" style="rhombus;whiteSpace=wrap;html=1;fillColor=#FF0000;" vertex="1" parent="1">
          <mxGeometry x="329" y="-430" width="170" height="80" as="geometry" />
        </mxCell>
        <mxCell id="67NqaBxBAHrcGL6LRNju-9" value="IF YES RETURN -1" style="rounded=0;whiteSpace=wrap;html=1;fillColor=#99FFFF;" vertex="1" parent="1">
          <mxGeometry x="100" y="-320" width="120" height="60" as="geometry" />
        </mxCell>
        <mxCell id="67NqaBxBAHrcGL6LRNju-13" style="edgeStyle=orthogonalEdgeStyle;rounded=0;orthogonalLoop=1;jettySize=auto;html=1;" edge="1" parent="1" source="67NqaBxBAHrcGL6LRNju-11">
          <mxGeometry relative="1" as="geometry">
            <mxPoint x="690" y="-230" as="targetPoint" />
          </mxGeometry>
        </mxCell>
        <mxCell id="67NqaBxBAHrcGL6LRNju-11" value="IF NO CONTINUE" style="rounded=0;whiteSpace=wrap;html=1;fillColor=#99FFFF;" vertex="1" parent="1">
          <mxGeometry x="630" y="-320" width="120" height="60" as="geometry" />
        </mxCell>
        <mxCell id="67NqaBxBAHrcGL6LRNju-15" value="SET CHARACTER&amp;nbsp;&lt;div&gt;COUNTER TO 0&lt;/div&gt;" style="rhombus;whiteSpace=wrap;html=1;fillColor=#FF0000;" vertex="1" parent="1">
          <mxGeometry x="582.5" y="-230" width="215" height="110" as="geometry" />
        </mxCell>
        <mxCell id="67NqaBxBAHrcGL6LRNju-17" value="" style="endArrow=classic;html=1;rounded=0;" edge="1" parent="1">
          <mxGeometry width="50" height="50" relative="1" as="geometry">
            <mxPoint x="690" y="-120" as="sourcePoint" />
            <mxPoint x="690" y="-90" as="targetPoint" />
          </mxGeometry>
        </mxCell>
        <mxCell id="67NqaBxBAHrcGL6LRNju-22" style="edgeStyle=orthogonalEdgeStyle;rounded=0;orthogonalLoop=1;jettySize=auto;html=1;" edge="1" parent="1" source="67NqaBxBAHrcGL6LRNju-18">
          <mxGeometry relative="1" as="geometry">
            <mxPoint x="480" y="-10" as="targetPoint" />
          </mxGeometry>
        </mxCell>
        <mxCell id="67NqaBxBAHrcGL6LRNju-28" style="edgeStyle=orthogonalEdgeStyle;rounded=0;orthogonalLoop=1;jettySize=auto;html=1;" edge="1" parent="1" source="67NqaBxBAHrcGL6LRNju-18">
          <mxGeometry relative="1" as="geometry">
            <mxPoint x="690" y="100" as="targetPoint" />
          </mxGeometry>
        </mxCell>
        <mxCell id="67NqaBxBAHrcGL6LRNju-18" value="WHILE&amp;nbsp;&lt;div&gt;BROWSE THE FORMAT CHAIN&lt;/div&gt;" style="rounded=0;whiteSpace=wrap;html=1;fillColor=#99FFFF;" vertex="1" parent="1">
          <mxGeometry x="630" y="-90" width="120" height="60" as="geometry" />
        </mxCell>
        <mxCell id="67NqaBxBAHrcGL6LRNju-26" style="edgeStyle=orthogonalEdgeStyle;rounded=0;orthogonalLoop=1;jettySize=auto;html=1;" edge="1" parent="1" source="67NqaBxBAHrcGL6LRNju-21">
          <mxGeometry relative="1" as="geometry">
            <mxPoint x="310" y="30" as="targetPoint" />
          </mxGeometry>
        </mxCell>
        <mxCell id="67NqaBxBAHrcGL6LRNju-21" value="IF NORMAL&lt;div&gt;CHARACTER&lt;/div&gt;" style="rhombus;whiteSpace=wrap;html=1;fillColor=#FF0000;" vertex="1" parent="1">
          <mxGeometry x="390" y="-10" width="170" height="80" as="geometry" />
        </mxCell>
        <mxCell id="67NqaBxBAHrcGL6LRNju-25" value="PRINT CHARACTER/&lt;div&gt;INCREMENT COUNTER&lt;/div&gt;" style="rounded=0;whiteSpace=wrap;html=1;fillColor=#99FFFF;" vertex="1" parent="1">
          <mxGeometry x="180" width="130" height="70" as="geometry" />
        </mxCell>
        <mxCell id="67NqaBxBAHrcGL6LRNju-32" style="edgeStyle=orthogonalEdgeStyle;rounded=0;orthogonalLoop=1;jettySize=auto;html=1;entryX=1;entryY=0.25;entryDx=0;entryDy=0;" edge="1" parent="1" source="67NqaBxBAHrcGL6LRNju-29" target="67NqaBxBAHrcGL6LRNju-31">
          <mxGeometry relative="1" as="geometry" />
        </mxCell>
        <mxCell id="67NqaBxBAHrcGL6LRNju-34" style="edgeStyle=orthogonalEdgeStyle;rounded=0;orthogonalLoop=1;jettySize=auto;html=1;entryX=1;entryY=0.25;entryDx=0;entryDy=0;" edge="1" parent="1" source="67NqaBxBAHrcGL6LRNju-29" target="67NqaBxBAHrcGL6LRNju-33">
          <mxGeometry relative="1" as="geometry" />
        </mxCell>
        <mxCell id="67NqaBxBAHrcGL6LRNju-36" style="edgeStyle=orthogonalEdgeStyle;rounded=0;orthogonalLoop=1;jettySize=auto;html=1;entryX=0.5;entryY=0;entryDx=0;entryDy=0;" edge="1" parent="1" source="67NqaBxBAHrcGL6LRNju-29" target="67NqaBxBAHrcGL6LRNju-35">
          <mxGeometry relative="1" as="geometry" />
        </mxCell>
        <mxCell id="67NqaBxBAHrcGL6LRNju-29" value="IF % (CHECK THE&lt;div&gt;FOLLOWING CHARACTER&lt;/div&gt;" style="rhombus;whiteSpace=wrap;html=1;fillColor=#FF0000;" vertex="1" parent="1">
          <mxGeometry x="582.5" y="100" width="215" height="130" as="geometry" />
        </mxCell>
        <mxCell id="67NqaBxBAHrcGL6LRNju-31" value="C&lt;div&gt;PRINT ARGUMENT CHARACTER&lt;/div&gt;&lt;div&gt;&lt;br&gt;&lt;/div&gt;&lt;div&gt;INCREMENT COUNTER&lt;/div&gt;" style="rounded=0;whiteSpace=wrap;html=1;fillColor=#99FFFF;" vertex="1" parent="1">
          <mxGeometry x="380" y="130" width="149" height="110" as="geometry" />
        </mxCell>
        <mxCell id="67NqaBxBAHrcGL6LRNju-33" value="S&lt;div&gt;PRINT ARGUMENT STRING&lt;/div&gt;&lt;div&gt;&lt;br&gt;&lt;/div&gt;&lt;div&gt;INCREMENT COUNTER BY STRING LENGTH&lt;/div&gt;" style="rounded=0;whiteSpace=wrap;html=1;fillColor=#99FFFF;" vertex="1" parent="1">
          <mxGeometry x="380" y="300" width="149" height="110" as="geometry" />
        </mxCell>
        <mxCell id="67NqaBxBAHrcGL6LRNju-38" style="edgeStyle=orthogonalEdgeStyle;rounded=0;orthogonalLoop=1;jettySize=auto;html=1;entryX=0.5;entryY=0;entryDx=0;entryDy=0;" edge="1" parent="1" source="67NqaBxBAHrcGL6LRNju-35" target="67NqaBxBAHrcGL6LRNju-37">
          <mxGeometry relative="1" as="geometry" />
        </mxCell>
        <mxCell id="67NqaBxBAHrcGL6LRNju-35" value="%&amp;nbsp;&lt;div&gt;PRINT %&lt;/div&gt;&lt;div&gt;&lt;br&gt;&lt;/div&gt;&lt;div&gt;INCREMENT COUNTER&lt;/div&gt;" style="rounded=0;whiteSpace=wrap;html=1;fillColor=#99FFFF;" vertex="1" parent="1">
          <mxGeometry x="615.5" y="340" width="149" height="110" as="geometry" />
        </mxCell>
        <mxCell id="67NqaBxBAHrcGL6LRNju-40" style="edgeStyle=orthogonalEdgeStyle;rounded=0;orthogonalLoop=1;jettySize=auto;html=1;entryX=0.5;entryY=0;entryDx=0;entryDy=0;" edge="1" parent="1" source="67NqaBxBAHrcGL6LRNju-37" target="67NqaBxBAHrcGL6LRNju-39">
          <mxGeometry relative="1" as="geometry" />
        </mxCell>
        <mxCell id="67NqaBxBAHrcGL6LRNju-37" value="IF CHARACTER NOT RECOGNIZED" style="rhombus;whiteSpace=wrap;html=1;fillColor=#FF0000;" vertex="1" parent="1">
          <mxGeometry x="552.5" y="500" width="275" height="160" as="geometry" />
        </mxCell>
        <mxCell id="67NqaBxBAHrcGL6LRNju-44" style="edgeStyle=orthogonalEdgeStyle;rounded=0;orthogonalLoop=1;jettySize=auto;html=1;entryX=0;entryY=0.5;entryDx=0;entryDy=0;" edge="1" parent="1" source="67NqaBxBAHrcGL6LRNju-39" target="67NqaBxBAHrcGL6LRNju-42">
          <mxGeometry relative="1" as="geometry" />
        </mxCell>
        <mxCell id="67NqaBxBAHrcGL6LRNju-39" value="PRINT % FOLLOWED BY&lt;div&gt;THE UNRECOGNIZED&lt;/div&gt;&lt;div&gt;CHARACTER&lt;/div&gt;&lt;div&gt;&lt;br&gt;&lt;/div&gt;&lt;div&gt;INCREMENT COUNTER BY 2&lt;/div&gt;" style="rounded=0;whiteSpace=wrap;html=1;fillColor=#99FFFF;" vertex="1" parent="1">
          <mxGeometry x="615.5" y="730" width="149" height="110" as="geometry" />
        </mxCell>
        <mxCell id="67NqaBxBAHrcGL6LRNju-49" style="edgeStyle=orthogonalEdgeStyle;rounded=0;orthogonalLoop=1;jettySize=auto;html=1;" edge="1" parent="1" source="67NqaBxBAHrcGL6LRNju-42">
          <mxGeometry relative="1" as="geometry">
            <mxPoint x="992.5000000000005" y="999.9999999999995" as="targetPoint" />
          </mxGeometry>
        </mxCell>
        <mxCell id="67NqaBxBAHrcGL6LRNju-42" value="IF ENF OF THE CHAIN&amp;nbsp;" style="rhombus;whiteSpace=wrap;html=1;fillColor=#FF0000;" vertex="1" parent="1">
          <mxGeometry x="880" y="720" width="225" height="130" as="geometry" />
        </mxCell>
        <mxCell id="67NqaBxBAHrcGL6LRNju-47" value="" style="curved=1;endArrow=classic;html=1;rounded=0;entryX=1;entryY=0.5;entryDx=0;entryDy=0;exitX=1;exitY=0.5;exitDx=0;exitDy=0;" edge="1" parent="1" source="67NqaBxBAHrcGL6LRNju-42" target="67NqaBxBAHrcGL6LRNju-18">
          <mxGeometry width="50" height="50" relative="1" as="geometry">
            <mxPoint x="1105" y="780" as="sourcePoint" />
            <mxPoint x="1155" y="730" as="targetPoint" />
            <Array as="points">
              <mxPoint x="1155" y="780" />
              <mxPoint x="1105" y="730" />
            </Array>
          </mxGeometry>
        </mxCell>
        <mxCell id="67NqaBxBAHrcGL6LRNju-48" value="&lt;b&gt;&lt;font style=&quot;font-size: 14px;&quot;&gt;NO&lt;/font&gt;&lt;/b&gt;" style="text;html=1;align=center;verticalAlign=middle;resizable=0;points=[];autosize=1;strokeColor=none;fillColor=none;" vertex="1" parent="1">
          <mxGeometry x="940" y="400" width="40" height="30" as="geometry" />
        </mxCell>
        <mxCell id="67NqaBxBAHrcGL6LRNju-50" value="&lt;b&gt;&lt;font style=&quot;font-size: 14px;&quot;&gt;YES&lt;/font&gt;&lt;/b&gt;" style="text;html=1;align=center;verticalAlign=middle;resizable=0;points=[];autosize=1;strokeColor=none;fillColor=none;" vertex="1" parent="1">
          <mxGeometry x="1000" y="920" width="50" height="30" as="geometry" />
        </mxCell>
        <mxCell id="67NqaBxBAHrcGL6LRNju-51" value="EXIT&lt;div&gt;&lt;br&gt;&lt;/div&gt;&lt;div&gt;RETURN THE TOTAL NUMBER OF CHARACTERS PRINTED&lt;/div&gt;" style="rounded=1;whiteSpace=wrap;html=1;fillColor=#3CFF29;" vertex="1" parent="1">
          <mxGeometry x="907.5" y="1000" width="170" height="120" as="geometry" />
        </mxCell>
      </root>
    </mxGraphModel>
  </diagram>
</mxfile>
